<?xml version="1.0" encoding="UTF-8"?>
<!DOCTYPE svg PUBLIC "-//W3C//DTD SVG 1.1//EN" "http://www.w3.org/Graphics/SVG/1.1/DTD/svg11.dtd">
<!-- Creator: CorelDRAW 2021 (64-Bit) -->
<svg xmlns="http://www.w3.org/2000/svg" xml:space="preserve" width="210mm" height="297mm" version="1.1" style="shape-rendering:geometricPrecision; text-rendering:geometricPrecision; image-rendering:optimizeQuality; fill-rule:evenodd; clip-rule:evenodd"
viewBox="0 0 21000 29700"
 xmlns:xlink="http://www.w3.org/1999/xlink"
 xmlns:xodm="http://www.corel.com/coreldraw/odm/2003">
 <defs>
  <style type="text/css">
   <![CDATA[
    .fil1 {fill:#4E5C72}
    .fil0 {fill:#4E5C73}
    .fil2 {fill:#FEFEFE}
   ]]>
  </style>
   <clipPath id="id0">
    <rect x="8242.23" y="12592.23" width="4515.54" height="4515.54"/>
   </clipPath>
 </defs>
 <g id="Слой_x0020_1">
  <metadata id="CorelCorpID_0Corel-Layer"/>
  <g style="clip-path:url(#id0)">
   <image id="frames.png" x="8242.23" y="12592.23" width="4515.54" height="4515.54" xlink:href="Home_Images\Home_ImgID1.png"/>
  </g>
  <g id="_2005543424720">
   <path class="fil0" d="M11545.7 15895.9l14.17 -1409.9c46.48,-33.3 130.42,-15.47 186.67,-15.34 47.49,105.52 47.62,1540.59 0.13,1625.84 -112.47,57.63 -1841.66,50.12 -1892.26,-2.56 -342.81,-356.88 1428.38,-100.98 1691.29,-198.04zm-1378.31 -3303.67l514.56 0c313.03,3.23 587.51,104.26 864.75,240.93 325.01,160.22 363.14,261.53 529.67,387.56 33.97,25.7 18.91,12.08 37.58,32.97 160.59,179.68 171,187.8 311.74,393.82 164.18,240.34 175.16,335.95 261.82,584.84 28.51,81.86 29.91,148.68 52.93,229.28 6.55,22.92 12.31,46.57 17.33,70.87l0 603.06c-63.21,408.32 -235.28,839.51 -458.6,1107.92l-425.58 421.08c-316.69,225.46 -406.82,251.4 -755.94,372.95 -81.86,28.51 -148.68,29.91 -229.28,52.93 -23.99,6.85 -49.94,12.58 -77.42,17.33l-554.35 0c-162.06,-18.41 -310.22,-48.42 -400.52,-79.28 -254.37,-86.93 -336.76,-107.98 -580.06,-266.59 -52.94,-34.51 -128.88,-78.94 -169.5,-112.73l-220.47 -202.86c-160.59,-179.68 -171,-187.8 -311.74,-393.82 -220.72,-323.11 -226.19,-504.01 -314.75,-814.12 -6.56,-22.98 -12.29,-46.53 -17.33,-70.54l0 -601.94c43,-271.41 133.49,-544.63 240.93,-762.59 150.5,-305.31 236.16,-339.33 358.18,-488.49 128.62,-157.23 24.31,-31.18 142.23,-139.99 44.82,-41.35 92.44,-103.49 142.84,-139.38 316.69,-225.46 406.82,-251.4 755.94,-372.95 46.43,-16.17 213.68,-42.52 229.6,-52.62 12.26,-7.78 31.42,-13.5 55.44,-17.64zm1025.6 2950.91l14.11 -1409.95c38.34,-27.58 170.57,-25.91 210.18,0.16l-22.78 1610.98c-111.98,57.94 -1841.78,50.1 -1892.9,-3.15 -342.53,-356.85 1429.99,-101.16 1691.39,-198.04zm-1974.38 -1812.32c62.42,-23.51 784.06,-11.06 910.97,-11.06 1085.3,-0.01 936.71,-131.45 936.7,900.94 0,190.82 77.42,711.34 -136.3,782.01 -89.25,29.52 -758.52,12.83 -906.23,12.82 -1091.32,-0.07 -935.9,133.89 -935.9,-900.67 0,-188.36 -76.59,-705.95 130.76,-784.04z"/>
   <polygon class="fil1" points="9302.33,15197.76 10844.97,15201.1 10851.63,13937.79 9307.59,13933.71 "/>
   <path class="fil2" d="M9307.59 13933.71l1544.04 4.08 -6.66 1263.31 -1542.64 -3.34 5.26 -1264.05zm-88.98 -202.89c-207.35,78.09 -130.76,595.68 -130.76,784.04 0,1034.56 -155.42,900.6 935.9,900.67 147.71,0.01 816.98,16.7 906.23,-12.82 213.72,-70.67 136.3,-591.19 136.3,-782.01 0.01,-1032.39 148.6,-900.95 -936.7,-900.94 -126.91,0 -848.55,-12.45 -910.97,11.06z"/>
   <path class="fil2" d="M11545.7 15895.9c-262.91,97.06 -2034.1,-158.84 -1691.29,198.04 50.6,52.68 1779.79,60.19 1892.26,2.56 47.49,-85.25 47.36,-1520.32 -0.13,-1625.84 -56.25,-0.13 -140.19,-17.96 -186.67,15.34l-14.17 1409.9z"/>
   <path class="fil2" d="M11192.99 15543.14c-261.4,96.88 -2033.92,-158.81 -1691.39,198.04 51.12,53.25 1780.92,61.09 1892.9,3.15l22.78 -1610.98c-39.61,-26.07 -171.84,-27.74 -210.18,-0.16l-14.11 1409.95z"/>
  </g>
 </g>
</svg>
